<svg width="356" height="121" viewBox="0 0 356 121" fill="none" xmlns="http://www.w3.org/2000/svg">
<path d="M124.173 97V24.2727H151.446C157.033 24.2727 161.721 25.2434 165.509 27.1847C169.32 29.1259 172.196 31.8485 174.138 35.3523C176.103 38.8324 177.085 42.8925 177.085 47.5327C177.085 52.1965 176.091 56.2448 174.102 59.6776C172.137 63.0866 169.237 65.7263 165.402 67.5966C161.567 69.4432 156.856 70.3665 151.268 70.3665H131.844V59.429H149.493C152.76 59.429 155.435 58.9792 157.518 58.0795C159.602 57.1562 161.141 55.8187 162.135 54.0668C163.153 52.2912 163.662 50.1132 163.662 47.5327C163.662 44.9522 163.153 42.7505 162.135 40.9276C161.117 39.081 159.566 37.6842 157.483 36.7372C155.4 35.7666 152.713 35.2812 149.422 35.2812H137.348V97H124.173ZM161.744 64.0455L179.749 97H165.047L147.362 64.0455H161.744ZM211.656 98.0653C206.329 98.0653 201.712 96.8935 197.806 94.5497C193.9 92.206 190.87 88.9271 188.715 84.7131C186.585 80.4991 185.519 75.5748 185.519 69.9403C185.519 64.3059 186.585 59.3698 188.715 55.1321C190.87 50.8944 193.9 47.6037 197.806 45.2599C201.712 42.9162 206.329 41.7443 211.656 41.7443C216.982 41.7443 221.599 42.9162 225.505 45.2599C229.411 47.6037 232.43 50.8944 234.56 55.1321C236.715 59.3698 237.792 64.3059 237.792 69.9403C237.792 75.5748 236.715 80.4991 234.56 84.7131C232.43 88.9271 229.411 92.206 225.505 94.5497C221.599 96.8935 216.982 98.0653 211.656 98.0653ZM211.727 87.767C214.615 87.767 217.03 86.974 218.971 85.3878C220.912 83.7779 222.356 81.6236 223.303 78.9247C224.274 76.2259 224.759 73.2192 224.759 69.9048C224.759 66.5668 224.274 63.5483 223.303 60.8494C222.356 58.1269 220.912 55.9607 218.971 54.3509C217.03 52.741 214.615 51.9361 211.727 51.9361C208.767 51.9361 206.305 52.741 204.34 54.3509C202.399 55.9607 200.943 58.1269 199.972 60.8494C199.025 63.5483 198.552 66.5668 198.552 69.9048C198.552 73.2192 199.025 76.2259 199.972 78.9247C200.943 81.6236 202.399 83.7779 204.34 85.3878C206.305 86.974 208.767 87.767 211.727 87.767ZM261.558 24.2727V97H248.703V24.2727H261.558ZM298.57 98.0653C293.243 98.0653 288.626 96.8935 284.72 94.5497C280.814 92.206 277.784 88.9271 275.629 84.7131C273.499 80.4991 272.433 75.5748 272.433 69.9403C272.433 64.3059 273.499 59.3698 275.629 55.1321C277.784 50.8944 280.814 47.6037 284.72 45.2599C288.626 42.9162 293.243 41.7443 298.57 41.7443C303.896 41.7443 308.513 42.9162 312.419 45.2599C316.325 47.6037 319.344 50.8944 321.474 55.1321C323.629 59.3698 324.706 64.3059 324.706 69.9403C324.706 75.5748 323.629 80.4991 321.474 84.7131C319.344 88.9271 316.325 92.206 312.419 94.5497C308.513 96.8935 303.896 98.0653 298.57 98.0653ZM298.641 87.767C301.529 87.767 303.944 86.974 305.885 85.3878C307.826 83.7779 309.27 81.6236 310.217 78.9247C311.188 76.2259 311.673 73.2192 311.673 69.9048C311.673 66.5668 311.188 63.5483 310.217 60.8494C309.27 58.1269 307.826 55.9607 305.885 54.3509C303.944 52.741 301.529 51.9361 298.641 51.9361C295.681 51.9361 293.219 52.741 291.254 54.3509C289.313 55.9607 287.857 58.1269 286.886 60.8494C285.939 63.5483 285.466 66.5668 285.466 69.9048C285.466 73.2192 285.939 76.2259 286.886 78.9247C287.857 81.6236 289.313 83.7779 291.254 85.3878C293.219 86.974 295.681 87.767 298.641 87.767ZM335.617 97V42.4545H348.472V97H335.617ZM342.08 34.7131C340.044 34.7131 338.292 34.0384 336.824 32.6889C335.356 31.3158 334.623 29.6705 334.623 27.7528C334.623 25.8116 335.356 24.1662 336.824 22.8168C338.292 21.4437 340.044 20.7571 342.08 20.7571C344.14 20.7571 345.891 21.4437 347.336 22.8168C348.803 24.1662 349.537 25.8116 349.537 27.7528C349.537 29.6705 348.803 31.3158 347.336 32.6889C345.891 34.0384 344.14 34.7131 342.08 34.7131Z" fill="url(#paint0_linear_226_48)"/>
<circle cx="47" cy="60" r="39.5" stroke="url(#paint1_linear_226_48)" stroke-width="15"/>
<defs>
<linearGradient id="paint0_linear_226_48" x1="87" y1="0" x2="310" y2="0" gradientUnits="userSpaceOnUse">
<stop offset="0.355769" stop-color="#A61F11"/>
<stop offset="1" stop-color="#A63B11"/>
</linearGradient>
<linearGradient id="paint1_linear_226_48" x1="-14.5" y1="48.5" x2="111" y2="48.5" gradientUnits="userSpaceOnUse">
<stop stop-color="#360D17"/>
<stop offset="1" stop-color="#A61F11"/>
</linearGradient>
</defs>
</svg>
